<?xml version="1.0" encoding="UTF-8" standalone="no"?>
<svg xmlns:dc="http://purl.org/dc/elements/1.1/" xmlns:cc="http://web.resource.org/cc/" xmlns:rdf="http://www.w3.org/1999/02/22-rdf-syntax-ns#" xmlns:svg="http://www.w3.org/2000/svg" xmlns="http://www.w3.org/2000/svg" xmlns:sodipodi="http://sodipodi.sourceforge.net/DTD/sodipodi-0.dtd" xmlns:inkscape="http://www.inkscape.org/namespaces/inkscape" preserveAspectRatio="xMinYMin meet" width="534.51123" height="936.59552" viewBox="0 0 560 420" version="1.0" id="svg2" sodipodi:version="0.32" inkscape:version="0.45.1" sodipodi:docname="Conformal_map.svg" inkscape:output_extension="org.inkscape.output.svg.inkscape" sodipodi:docbase="/home/aoleg/diverse/wiki">
  <metadata id="metadata378">
    <rdf:RDF>
      <cc:Work rdf:about="">
        <dc:format>image/svg+xml</dc:format>
        <dc:type rdf:resource="http://purl.org/dc/dcmitype/StillImage"/>
      </cc:Work>
    </rdf:RDF>
  </metadata>
  <defs id="defs376">
    <marker inkscape:stockid="Arrow1Send" orient="auto" refY="0" refX="0" id="Arrow1Send" style="overflow:visible">
      <path id="path3537" d="M 0,0 L 5,-5 L -12.5,0 L 5,5 L 0,0 z " style="fill-rule:evenodd;stroke:#000000;stroke-width:1pt;marker-start:none" transform="matrix(-0.2,0,0,-0.2,-1.2,0)"/>
    </marker>
    <marker inkscape:stockid="Arrow1Lend" orient="auto" refY="0" refX="0" id="Arrow1Lend" style="overflow:visible">
      <path id="path3525" d="M 0,0 L 5,-5 L -12.5,0 L 5,5 L 0,0 z " style="fill-rule:evenodd;stroke:#000000;stroke-width:1pt;marker-start:none" transform="matrix(-0.8,0,0,-0.8,-10,0)"/>
    </marker>
  </defs>
  <sodipodi:namedview inkscape:window-height="692" inkscape:window-width="836" inkscape:pageshadow="2" inkscape:pageopacity="0.0" guidetolerance="10.0" gridtolerance="10.0" objecttolerance="10.0" borderopacity="1.0" bordercolor="#666666" pagecolor="#ffffff" id="base" inkscape:zoom="0.35355339" inkscape:cx="44.676084" inkscape:cy="458.86865" inkscape:window-x="0" inkscape:window-y="0" inkscape:current-layer="svg2"/>
  <desc id="desc4">Matlab Figure Converted by PLOT2SVG written by Juerg Schwizer</desc>
  <g id="g8" transform="matrix(4.5666404,0,0,4.5666404,-1207.0024,-531.55124)">
    <clipPath id="ID000000">
      <rect x="191.38901" y="31.5" width="196.823" height="342.29999" id="rect11"/>
    </clipPath>
    <g id="g13">
      <polyline style="fill:none;stroke:#0080cc;stroke-width:1.35066366;stroke-miterlimit:4;stroke-dasharray:none" id="polyline17" points="276.964,202.650 276.964,196.538 276.964,190.425 276.964,184.312 276.964,178.200 276.964,172.088 276.964,165.975 276.964,159.863 276.964,153.750 276.964,147.638 276.964,141.525 276.964,135.413 276.964,129.300 276.964,123.188 276.964,117.075 " transform="matrix(0.9975216,0,0,0.917322,2.4637305,11.484662)"/>
      <g id="g19"/>
      <polyline style="fill:none;stroke:#0080cc;stroke-width:1.35066366;stroke-miterlimit:4;stroke-dasharray:none" id="polyline23" points="276.964,202.650 283.076,202.650 289.189,202.650 295.301,202.650 301.414,202.650 307.526,202.650 313.639,202.650 319.751,202.650 325.864,202.650 331.976,202.650 338.089,202.650 344.201,202.650 350.314,202.650 356.426,202.650 362.539,202.650 " transform="matrix(0.9975216,0,0,0.917322,2.4637305,11.484662)"/>
      <g id="g25"/>
      <polyline style="fill:none;stroke:#0080cc;stroke-width:1.35066366;stroke-miterlimit:4;stroke-dasharray:none" id="polyline29" points="283.076,202.650 283.076,196.538 283.076,190.425 283.076,184.312 283.076,178.200 283.076,172.088 283.076,165.975 283.076,159.863 283.076,153.750 283.076,147.638 283.076,141.525 283.076,135.413 283.076,129.300 283.076,123.188 283.076,117.075 " transform="matrix(0.9975216,0,0,0.917322,2.4637305,11.484662)"/>
      <g id="g31"/>
      <polyline style="fill:none;stroke:#0080cc;stroke-width:1.35066366;stroke-miterlimit:4;stroke-dasharray:none" id="polyline35" points="276.964,196.538 283.076,196.538 289.189,196.538 295.301,196.538 301.414,196.538 307.526,196.538 313.639,196.538 319.751,196.538 325.864,196.538 331.976,196.538 338.089,196.538 344.201,196.538 350.314,196.538 356.426,196.538 362.539,196.538 " transform="matrix(0.9975216,0,0,0.917322,2.4637305,11.484662)"/>
      <g id="g37"/>
      <polyline style="fill:none;stroke:#0080cc;stroke-width:1.35066366;stroke-miterlimit:4;stroke-dasharray:none" id="polyline41" points="289.189,202.650 289.189,196.538 289.189,190.425 289.189,184.312 289.189,178.200 289.189,172.088 289.189,165.975 289.189,159.863 289.189,153.750 289.189,147.638 289.189,141.525 289.189,135.413 289.189,129.300 289.189,123.188 289.189,117.075 " transform="matrix(0.9975216,0,0,0.917322,2.4637305,11.484662)"/>
      <g id="g43"/>
      <polyline style="fill:none;stroke:#0080cc;stroke-width:1.35066366;stroke-miterlimit:4;stroke-dasharray:none" id="polyline47" points="276.964,190.425 283.076,190.425 289.189,190.425 295.301,190.425 301.414,190.425 307.526,190.425 313.639,190.425 319.751,190.425 325.864,190.425 331.976,190.425 338.089,190.425 344.201,190.425 350.314,190.425 356.426,190.425 362.539,190.425 " transform="matrix(0.9975216,0,0,0.917322,2.4637305,11.484662)"/>
      <g id="g49"/>
      <polyline style="fill:none;stroke:#0080cc;stroke-width:1.35066366;stroke-miterlimit:4;stroke-dasharray:none" id="polyline53" points="295.301,202.650 295.301,196.538 295.301,190.425 295.301,184.312 295.301,178.200 295.301,172.088 295.301,165.975 295.301,159.863 295.301,153.750 295.301,147.638 295.301,141.525 295.301,135.413 295.301,129.300 295.301,123.188 295.301,117.075 " transform="matrix(0.9975216,0,0,0.917322,2.4637305,11.484662)"/>
      <g id="g55"/>
      <polyline style="fill:none;stroke:#0080cc;stroke-width:1.35066366;stroke-miterlimit:4;stroke-dasharray:none" id="polyline59" points="276.964,184.312 283.076,184.312 289.189,184.312 295.301,184.312 301.414,184.312 307.526,184.312 313.639,184.312 319.751,184.312 325.864,184.312 331.976,184.312 338.089,184.312 344.201,184.312 350.314,184.312 356.426,184.312 362.539,184.312 " transform="matrix(0.9975216,0,0,0.917322,2.4637305,11.484662)"/>
      <g id="g61"/>
      <polyline style="fill:none;stroke:#0080cc;stroke-width:1.35066366;stroke-miterlimit:4;stroke-dasharray:none" id="polyline65" points="301.414,202.650 301.414,196.538 301.414,190.425 301.414,184.312 301.414,178.200 301.414,172.088 301.414,165.975 301.414,159.863 301.414,153.750 301.414,147.638 301.414,141.525 301.414,135.413 301.414,129.300 301.414,123.188 301.414,117.075 " transform="matrix(0.9975216,0,0,0.917322,2.4637305,11.484662)"/>
      <g id="g67"/>
      <polyline style="fill:none;stroke:#0080cc;stroke-width:1.35066366;stroke-miterlimit:4;stroke-dasharray:none" id="polyline71" points="276.964,178.200 283.076,178.200 289.189,178.200 295.301,178.200 301.414,178.200 307.526,178.200 313.639,178.200 319.751,178.200 325.864,178.200 331.976,178.200 338.089,178.200 344.201,178.200 350.314,178.200 356.426,178.200 362.539,178.200 " transform="matrix(0.9975216,0,0,0.917322,2.4637305,11.484662)"/>
      <g id="g73"/>
      <polyline style="fill:none;stroke:#0080cc;stroke-width:1.35066366;stroke-miterlimit:4;stroke-dasharray:none" id="polyline77" points="307.526,202.650 307.526,196.538 307.526,190.425 307.526,184.312 307.526,178.200 307.526,172.088 307.526,165.975 307.526,159.863 307.526,153.750 307.526,147.638 307.526,141.525 307.526,135.413 307.526,129.300 307.526,123.188 307.526,117.075 " transform="matrix(0.9975216,0,0,0.917322,2.4637305,11.484662)"/>
      <g id="g79"/>
      <polyline style="fill:none;stroke:#0080cc;stroke-width:1.35066366;stroke-miterlimit:4;stroke-dasharray:none" id="polyline83" points="276.964,172.088 283.076,172.088 289.189,172.088 295.301,172.088 301.414,172.088 307.526,172.088 313.639,172.088 319.751,172.088 325.864,172.088 331.976,172.088 338.089,172.088 344.201,172.088 350.314,172.088 356.426,172.088 362.539,172.088 " transform="matrix(0.9975216,0,0,0.917322,2.4637305,11.484662)"/>
      <g id="g85"/>
      <polyline style="fill:none;stroke:#0080cc;stroke-width:1.35066366;stroke-miterlimit:4;stroke-dasharray:none" id="polyline89" points="313.639,202.650 313.639,196.538 313.639,190.425 313.639,184.312 313.639,178.200 313.639,172.088 313.639,165.975 313.639,159.863 313.639,153.750 313.639,147.638 313.639,141.525 313.639,135.413 313.639,129.300 313.639,123.188 313.639,117.075 " transform="matrix(0.9975216,0,0,0.917322,2.4637305,11.484662)"/>
      <g id="g91"/>
      <polyline style="fill:none;stroke:#0080cc;stroke-width:1.35066366;stroke-miterlimit:4;stroke-dasharray:none" id="polyline95" points="276.964,165.975 283.076,165.975 289.189,165.975 295.301,165.975 301.414,165.975 307.526,165.975 313.639,165.975 319.751,165.975 325.864,165.975 331.976,165.975 338.089,165.975 344.201,165.975 350.314,165.975 356.426,165.975 362.539,165.975 " transform="matrix(0.9975216,0,0,0.917322,2.4637305,11.484662)"/>
      <g id="g97"/>
      <polyline style="fill:none;stroke:#0080cc;stroke-width:1.35066366;stroke-miterlimit:4;stroke-dasharray:none" id="polyline101" points="319.751,202.650 319.751,196.538 319.751,190.425 319.751,184.312 319.751,178.200 319.751,172.088 319.751,165.975 319.751,159.863 319.751,153.750 319.751,147.638 319.751,141.525 319.751,135.413 319.751,129.300 319.751,123.188 319.751,117.075 " transform="matrix(0.9975216,0,0,0.917322,2.4637305,11.484662)"/>
      <g id="g103"/>
      <polyline style="fill:none;stroke:#0080cc;stroke-width:1.35066366;stroke-miterlimit:4;stroke-dasharray:none" id="polyline107" points="276.964,159.863 283.076,159.863 289.189,159.863 295.301,159.863 301.414,159.863 307.526,159.863 313.639,159.863 319.751,159.863 325.864,159.863 331.976,159.863 338.089,159.863 344.201,159.863 350.314,159.863 356.426,159.863 362.539,159.863 " transform="matrix(0.9975216,0,0,0.917322,2.4637305,11.484662)"/>
      <g id="g109"/>
      <polyline style="fill:none;stroke:#0080cc;stroke-width:1.35066366;stroke-miterlimit:4;stroke-dasharray:none" id="polyline113" points="325.864,202.650 325.864,196.538 325.864,190.425 325.864,184.312 325.864,178.200 325.864,172.088 325.864,165.975 325.864,159.863 325.864,153.750 325.864,147.638 325.864,141.525 325.864,135.413 325.864,129.300 325.864,123.188 325.864,117.075 " transform="matrix(0.9975216,0,0,0.917322,2.4637305,11.484662)"/>
      <g id="g115"/>
      <polyline style="fill:none;stroke:#0080cc;stroke-width:1.35066366;stroke-miterlimit:4;stroke-dasharray:none" id="polyline119" points="276.964,153.750 283.076,153.750 289.189,153.750 295.301,153.750 301.414,153.750 307.526,153.750 313.639,153.750 319.751,153.750 325.864,153.750 331.976,153.750 338.089,153.750 344.201,153.750 350.314,153.750 356.426,153.750 362.539,153.750 " transform="matrix(0.9975216,0,0,0.917322,2.4637305,11.484662)"/>
      <g id="g121"/>
      <polyline style="fill:none;stroke:#0080cc;stroke-width:1.35066366;stroke-miterlimit:4;stroke-dasharray:none" id="polyline125" points="331.976,202.650 331.976,196.538 331.976,190.425 331.976,184.312 331.976,178.200 331.976,172.088 331.976,165.975 331.976,159.863 331.976,153.750 331.976,147.638 331.976,141.525 331.976,135.413 331.976,129.300 331.976,123.188 331.976,117.075 " transform="matrix(0.9975216,0,0,0.917322,2.4637305,11.484662)"/>
      <g id="g127"/>
      <polyline style="fill:none;stroke:#0080cc;stroke-width:1.35066366;stroke-miterlimit:4;stroke-dasharray:none" id="polyline131" points="276.964,147.638 283.076,147.638 289.189,147.638 295.301,147.638 301.414,147.638 307.526,147.638 313.639,147.638 319.751,147.638 325.864,147.638 331.976,147.638 338.089,147.638 344.201,147.638 350.314,147.638 356.426,147.638 362.539,147.638 " transform="matrix(0.9975216,0,0,0.917322,2.4637305,11.484662)"/>
      <g id="g133"/>
      <polyline style="fill:none;stroke:#0080cc;stroke-width:1.35066366;stroke-miterlimit:4;stroke-dasharray:none" id="polyline137" points="338.089,202.650 338.089,196.538 338.089,190.425 338.089,184.312 338.089,178.200 338.089,172.088 338.089,165.975 338.089,159.863 338.089,153.750 338.089,147.638 338.089,141.525 338.089,135.413 338.089,129.300 338.089,123.188 338.089,117.075 " transform="matrix(0.9975216,0,0,0.917322,2.4637305,11.484662)"/>
      <g id="g139"/>
      <polyline style="fill:none;stroke:#0080cc;stroke-width:1.35066366;stroke-miterlimit:4;stroke-dasharray:none" id="polyline143" points="276.964,141.525 283.076,141.525 289.189,141.525 295.301,141.525 301.414,141.525 307.526,141.525 313.639,141.525 319.751,141.525 325.864,141.525 331.976,141.525 338.089,141.525 344.201,141.525 350.314,141.525 356.426,141.525 362.539,141.525 " transform="matrix(0.9975216,0,0,0.917322,2.4637305,11.484662)"/>
      <g id="g145"/>
      <polyline style="fill:none;stroke:#0080cc;stroke-width:1.35066366;stroke-miterlimit:4;stroke-dasharray:none" id="polyline149" points="344.201,202.650 344.201,196.538 344.201,190.425 344.201,184.312 344.201,178.200 344.201,172.088 344.201,165.975 344.201,159.863 344.201,153.750 344.201,147.638 344.201,141.525 344.201,135.413 344.201,129.300 344.201,123.188 344.201,117.075 " transform="matrix(0.9975216,0,0,0.917322,2.4637305,11.484662)"/>
      <g id="g151"/>
      <polyline style="fill:none;stroke:#0080cc;stroke-width:1.35066366;stroke-miterlimit:4;stroke-dasharray:none" id="polyline155" points="276.964,135.413 283.076,135.413 289.189,135.413 295.301,135.413 301.414,135.413 307.526,135.413 313.639,135.413 319.751,135.413 325.864,135.413 331.976,135.413 338.089,135.413 344.201,135.413 350.314,135.413 356.426,135.413 362.539,135.413 " transform="matrix(0.9975216,0,0,0.917322,2.4637305,11.484662)"/>
      <g id="g157"/>
      <polyline style="fill:none;stroke:#0080cc;stroke-width:1.35066366;stroke-miterlimit:4;stroke-dasharray:none" id="polyline161" points="350.314,202.650 350.314,196.538 350.314,190.425 350.314,184.312 350.314,178.200 350.314,172.088 350.314,165.975 350.314,159.863 350.314,153.750 350.314,147.638 350.314,141.525 350.314,135.413 350.314,129.300 350.314,123.188 350.314,117.075 " transform="matrix(0.9975216,0,0,0.917322,2.4637305,11.484662)"/>
      <g id="g163"/>
      <polyline style="fill:none;stroke:#0080cc;stroke-width:1.35066366;stroke-miterlimit:4;stroke-dasharray:none" id="polyline167" points="276.964,129.300 283.076,129.300 289.189,129.300 295.301,129.300 301.414,129.300 307.526,129.300 313.639,129.300 319.751,129.300 325.864,129.300 331.976,129.300 338.089,129.300 344.201,129.300 350.314,129.300 356.426,129.300 362.539,129.300 " transform="matrix(0.9975216,0,0,0.917322,2.4637305,11.484662)"/>
      <g id="g169"/>
      <polyline style="fill:none;stroke:#0080cc;stroke-width:1.35066366;stroke-miterlimit:4;stroke-dasharray:none" id="polyline173" points="356.426,202.650 356.426,196.538 356.426,190.425 356.426,184.312 356.426,178.200 356.426,172.088 356.426,165.975 356.426,159.863 356.426,153.750 356.426,147.638 356.426,141.525 356.426,135.413 356.426,129.300 356.426,123.188 356.426,117.075 " transform="matrix(0.9975216,0,0,0.917322,2.4637305,11.484662)"/>
      <g id="g175"/>
      <polyline style="fill:none;stroke:#0080cc;stroke-width:1.35066366;stroke-miterlimit:4;stroke-dasharray:none" id="polyline179" points="276.964,123.188 283.076,123.188 289.189,123.188 295.301,123.188 301.414,123.188 307.526,123.188 313.639,123.188 319.751,123.188 325.864,123.188 331.976,123.188 338.089,123.188 344.201,123.188 350.314,123.188 356.426,123.188 362.539,123.188 " transform="matrix(0.9975216,0,0,0.917322,2.4637305,11.484662)"/>
      <g id="g181"/>
      <polyline style="fill:none;stroke:#0080cc;stroke-width:1.35066366;stroke-miterlimit:4;stroke-dasharray:none" id="polyline185" points="362.539,202.650 362.539,196.538 362.539,190.425 362.539,184.312 362.539,178.200 362.539,172.088 362.539,165.975 362.539,159.863 362.539,153.750 362.539,147.638 362.539,141.525 362.539,135.413 362.539,129.300 362.539,123.188 362.539,117.075 " transform="matrix(0.9975216,0,0,0.917322,2.4637305,11.484662)"/>
      <g id="g187"/>
      <polyline style="fill:none;stroke:#0080cc;stroke-width:1.35066366;stroke-miterlimit:4;stroke-dasharray:none" id="polyline191" points="276.964,117.075 283.076,117.075 289.189,117.075 295.301,117.075 301.414,117.075 307.526,117.075 313.639,117.075 319.751,117.075 325.864,117.075 331.976,117.075 338.089,117.075 344.201,117.075 350.314,117.075 356.426,117.075 362.539,117.075 " transform="matrix(0.9975216,0,0,0.917322,2.4637305,11.484662)"/>
      <g id="g193"/>
      <polyline style="fill:none;stroke:#0080cc;stroke-width:1.35066366;stroke-miterlimit:4;stroke-dasharray:none" id="polyline197" points="384.788,278.784 383.458,281.312 381.983,284.206 380.352,287.468 378.554,291.097 376.582,295.093 374.425,299.451 372.078,304.167 369.532,309.234 366.783,314.643 363.826,320.385 360.655,326.448 357.268,332.818 353.663,339.479 349.838,346.416 " transform="matrix(0.9975216,0,0,0.917322,2.4637305,11.484662)"/>
      <g id="g199"/>
      <polyline style="fill:none;stroke:#0080cc;stroke-width:1.35066366;stroke-miterlimit:4;stroke-dasharray:none" id="polyline203" points="384.788,278.784 382.510,277.344 380.369,275.552 378.373,273.418 376.527,270.950 374.838,268.155 373.315,265.037 371.967,261.598 370.803,257.841 369.835,253.764 369.073,249.364 368.530,244.640 368.220,239.583 368.155,234.188 368.352,228.445 " transform="matrix(0.9975216,0,0,0.917322,2.4637305,11.484662)"/>
      <g id="g205"/>
      <polyline style="fill:none;stroke:#0080cc;stroke-width:1.35066366;stroke-miterlimit:4;stroke-dasharray:none" id="polyline209" points="382.510,277.344 380.821,279.731 378.984,282.473 376.989,285.573 374.829,289.032 372.496,292.849 369.982,297.022 367.283,301.547 364.393,306.417 361.308,311.625 358.025,317.162 354.542,323.017 350.857,329.176 346.968,335.627 342.878,342.352 " transform="matrix(0.9975216,0,0,0.917322,2.4637305,11.484662)"/>
      <g id="g211"/>
      <polyline style="fill:none;stroke:#0080cc;stroke-width:1.35066366;stroke-miterlimit:4;stroke-dasharray:none" id="polyline215" points="383.458,281.312 380.821,279.731 378.332,277.793 375.995,275.508 373.815,272.884 371.798,269.925 369.949,266.635 368.277,263.017 366.789,259.070 365.494,254.794 364.403,250.184 363.526,245.236 362.873,239.945 362.459,234.301 362.296,228.294 " transform="matrix(0.9975216,0,0,0.917322,2.4637305,11.484662)"/>
      <g id="g217"/>
      <polyline style="fill:none;stroke:#0080cc;stroke-width:1.35066366;stroke-miterlimit:4;stroke-dasharray:none" id="polyline221" points="380.369,275.552 378.332,277.793 376.142,280.381 373.793,283.318 371.277,286.608 368.589,290.250 365.725,294.242 362.679,298.581 359.449,303.261 356.031,308.278 352.426,313.620 348.631,319.280 344.648,325.244 340.476,331.500 336.118,338.032 " transform="matrix(0.9975216,0,0,0.917322,2.4637305,11.484662)"/>
      <g id="g223"/>
      <polyline style="fill:none;stroke:#0080cc;stroke-width:1.35066366;stroke-miterlimit:4;stroke-dasharray:none" id="polyline227" points="381.983,284.206 378.984,282.473 376.142,280.381 373.460,277.938 370.941,275.152 368.588,272.026 366.407,268.563 364.402,264.764 362.581,260.629 360.951,256.156 359.520,251.341 358.296,246.177 357.290,240.658 356.512,234.775 355.974,228.517 " transform="matrix(0.9975216,0,0,0.917322,2.4637305,11.484662)"/>
      <g id="g229"/>
      <polyline style="fill:none;stroke:#0080cc;stroke-width:1.35066366;stroke-miterlimit:4;stroke-dasharray:none" id="polyline233" points="378.373,273.418 375.995,275.508 373.460,277.938 370.762,280.712 367.897,283.832 364.860,287.300 361.648,291.114 358.259,295.272 354.691,299.771 350.943,304.603 347.016,309.762 342.910,315.238 338.627,321.020 334.170,327.096 329.543,333.451 " transform="matrix(0.9975216,0,0,0.917322,2.4637305,11.484662)"/>
      <g id="g235"/>
      <polyline style="fill:none;stroke:#0080cc;stroke-width:1.35066366;stroke-miterlimit:4;stroke-dasharray:none" id="polyline239" points="380.352,287.468 376.989,285.573 373.793,283.318 370.762,280.712 367.900,277.759 365.207,274.462 362.687,270.825 360.345,266.847 358.183,262.527 356.209,257.861 354.428,252.845 352.849,247.473 351.478,241.736 350.325,235.625 349.400,229.127 " transform="matrix(0.9975216,0,0,0.917322,2.4637305,11.484662)"/>
      <g id="g241"/>
      <polyline style="fill:none;stroke:#0080cc;stroke-width:1.35066366;stroke-miterlimit:4;stroke-dasharray:none" id="polyline245" points="376.527,270.950 373.815,272.884 370.941,275.152 367.900,277.759 364.689,280.709 361.306,284.003 357.750,287.642 354.019,291.624 350.113,295.946 346.035,300.602 341.784,305.586 337.365,310.890 332.781,316.503 328.035,322.413 323.134,328.607 " transform="matrix(0.9975216,0,0,0.917322,2.4637305,11.484662)"/>
      <g id="g247"/>
      <polyline style="fill:none;stroke:#0080cc;stroke-width:1.35066366;stroke-miterlimit:4;stroke-dasharray:none" id="polyline251" points="378.554,291.097 374.829,289.032 371.277,286.608 367.897,283.832 364.689,280.709 361.653,277.240 358.791,273.428 356.105,269.272 353.598,264.769 351.274,259.916 349.137,254.706 347.193,249.133 345.448,243.188 343.911,236.860 342.588,230.136 " transform="matrix(0.9975216,0,0,0.917322,2.4637305,11.484662)"/>
      <g id="g253"/>
      <polyline style="fill:none;stroke:#0080cc;stroke-width:1.35066366;stroke-miterlimit:4;stroke-dasharray:none" id="polyline257" points="374.838,268.155 371.798,269.925 368.588,272.026 365.207,274.462 361.653,277.240 357.926,280.361 354.026,283.827 349.953,287.636 345.709,291.786 341.298,296.273 336.722,301.090 331.986,306.232 327.095,311.687 322.056,317.446 316.875,323.495 " transform="matrix(0.9975216,0,0,0.917322,2.4637305,11.484662)"/>
      <g id="g259"/>
      <polyline style="fill:none;stroke:#0080cc;stroke-width:1.35066366;stroke-miterlimit:4;stroke-dasharray:none" id="polyline263" points="376.582,295.093 372.496,292.849 368.589,290.250 364.860,287.300 361.306,284.003 357.926,280.361 354.720,276.375 351.687,272.043 348.830,267.361 346.151,262.326 343.652,256.930 341.337,251.166 339.212,245.023 337.282,238.491 335.552,231.554 " transform="matrix(0.9975216,0,0,0.917322,2.4637305,11.484662)"/>
      <g id="g265"/>
      <polyline style="fill:none;stroke:#0080cc;stroke-width:1.35066366;stroke-miterlimit:4;stroke-dasharray:none" id="polyline269" points="373.315,265.037 369.949,266.635 366.407,268.563 362.687,270.825 358.791,273.428 354.720,276.375 350.474,279.668 346.058,283.306 341.473,287.289 336.725,291.612 331.820,296.271 326.762,301.259 321.559,306.568 316.218,312.187 310.749,318.105 " transform="matrix(0.9975216,0,0,0.917322,2.4637305,11.484662)"/>
      <g id="g271"/>
      <polyline style="fill:none;stroke:#0080cc;stroke-width:1.35066366;stroke-miterlimit:4;stroke-dasharray:none" id="polyline275" points="374.425,299.451 369.982,297.022 365.725,294.242 361.648,291.114 357.750,287.642 354.026,283.827 350.474,279.668 347.094,275.162 343.885,270.307 340.848,265.096 337.983,259.523 335.293,253.577 332.781,247.248 330.451,240.524 328.308,233.391 " transform="matrix(0.9975216,0,0,0.917322,2.4637305,11.484662)"/>
      <g id="g277"/>
      <polyline style="fill:none;stroke:#0080cc;stroke-width:1.35066366;stroke-miterlimit:4;stroke-dasharray:none" id="polyline281" points="371.967,261.598 368.277,263.017 364.402,264.764 360.345,266.847 356.105,269.272 351.687,272.043 347.094,275.162 342.330,278.632 337.401,282.450 332.311,286.615 327.070,291.122 321.683,295.966 316.160,301.138 310.510,306.630 304.744,312.431 " transform="matrix(0.9975216,0,0,0.917322,2.4637305,11.484662)"/>
      <g id="g283"/>
      <polyline style="fill:none;stroke:#0080cc;stroke-width:1.35066366;stroke-miterlimit:4;stroke-dasharray:none" id="polyline287" points="372.078,304.167 367.283,301.547 362.679,298.581 358.259,295.272 354.019,291.624 349.953,287.636 346.058,283.306 342.330,278.632 338.769,273.609 335.372,268.230 332.139,262.487 329.071,256.370 326.168,249.868 323.435,242.967 320.872,235.653 " transform="matrix(0.9975216,0,0,0.917322,2.4637305,11.484662)"/>
      <g id="g289"/>
      <polyline style="fill:none;stroke:#0080cc;stroke-width:1.35066366;stroke-miterlimit:4;stroke-dasharray:none" id="polyline293" points="370.803,257.841 366.789,259.070 362.581,260.629 358.183,262.527 353.598,264.769 348.830,267.361 343.885,270.307 338.769,273.609 333.488,277.265 328.050,281.276 322.464,285.637 316.740,290.343 310.888,295.389 304.918,300.764 298.844,306.460 " transform="matrix(0.9975216,0,0,0.917322,2.4637305,11.484662)"/>
      <g id="g295"/>
      <polyline style="fill:none;stroke:#0080cc;stroke-width:1.35066366;stroke-miterlimit:4;stroke-dasharray:none" id="polyline299" points="369.532,309.234 364.393,306.417 359.449,303.261 354.691,299.771 350.113,295.946 345.709,291.786 341.473,287.289 337.401,282.450 333.488,277.265 329.732,271.726 326.130,265.824 322.682,259.548 319.388,252.886 316.247,245.823 313.261,238.344 " transform="matrix(0.9975216,0,0,0.917322,2.4637305,11.484662)"/>
      <g id="g301"/>
      <polyline style="fill:none;stroke:#0080cc;stroke-width:1.35066366;stroke-miterlimit:4;stroke-dasharray:none" id="polyline305" points="369.835,253.764 365.494,254.794 360.951,256.156 356.209,257.861 351.274,259.916 346.151,262.326 340.848,265.096 335.372,268.230 329.732,271.726 323.937,275.586 317.998,279.806 311.926,284.382 305.733,289.308 299.432,294.578 293.036,300.180 " transform="matrix(0.9975216,0,0,0.917322,2.4637305,11.484662)"/>
      <g id="g307"/>
      <polyline style="fill:none;stroke:#0080cc;stroke-width:1.35066366;stroke-miterlimit:4;stroke-dasharray:none" id="polyline311" points="366.783,314.643 361.308,311.625 356.031,308.278 350.943,304.603 346.035,300.602 341.298,296.273 336.725,291.612 332.311,286.615 328.050,281.276 323.937,275.586 319.968,269.535 316.141,263.112 312.453,256.304 308.904,249.095 305.492,241.469 " transform="matrix(0.9975216,0,0,0.917322,2.4637305,11.484662)"/>
      <g id="g313"/>
      <polyline style="fill:none;stroke:#0080cc;stroke-width:1.35066366;stroke-miterlimit:4;stroke-dasharray:none" id="polyline317" points="369.073,249.364 364.403,250.184 359.520,251.341 354.428,252.845 349.137,254.706 343.652,256.930 337.983,259.523 332.139,262.487 326.130,265.824 319.968,269.535 313.665,273.618 307.233,278.070 300.687,282.885 294.040,288.057 287.308,293.578 " transform="matrix(0.9975216,0,0,0.917322,2.4637305,11.484662)"/>
      <g id="g319"/>
      <polyline style="fill:none;stroke:#0080cc;stroke-width:1.35066366;stroke-miterlimit:4;stroke-dasharray:none" id="polyline323" points="363.826,320.385 358.025,317.162 352.426,313.620 347.016,309.762 341.784,305.586 336.722,301.090 331.820,296.271 327.070,291.122 322.464,285.637 317.998,279.806 313.665,273.618 309.461,267.062 305.381,260.123 301.423,252.784 297.586,245.030 " transform="matrix(0.9975216,0,0,0.917322,2.4637305,11.484662)"/>
      <g id="g325"/>
      <polyline style="fill:none;stroke:#0080cc;stroke-width:1.35066366;stroke-miterlimit:4;stroke-dasharray:none" id="polyline329" points="368.530,244.640 363.526,245.236 358.296,246.177 352.849,247.473 347.193,249.133 341.337,251.166 335.293,253.577 329.071,256.370 322.682,259.548 316.141,263.112 309.461,267.062 302.655,271.394 295.741,276.105 288.733,281.188 281.649,286.637 " transform="matrix(0.9975216,0,0,0.917322,2.4637305,11.484662)"/>
      <g id="g331"/>
      <polyline style="fill:none;stroke:#0080cc;stroke-width:1.35066366;stroke-miterlimit:4;stroke-dasharray:none" id="polyline335" points="360.655,326.448 354.542,323.017 348.631,319.280 342.910,315.238 337.365,310.890 331.986,306.232 326.762,301.259 321.683,295.966 316.740,290.343 311.926,284.382 307.233,278.070 302.655,271.394 298.187,264.340 293.823,256.889 289.561,249.025 " transform="matrix(0.9975216,0,0,0.917322,2.4637305,11.484662)"/>
      <g id="g337"/>
      <polyline style="fill:none;stroke:#0080cc;stroke-width:1.35066366;stroke-miterlimit:4;stroke-dasharray:none" id="polyline341" points="368.220,239.583 362.873,239.945 357.290,240.658 351.478,241.736 345.448,243.188 339.212,245.023 332.781,247.248 326.168,249.868 319.388,252.886 312.453,256.304 305.381,260.123 298.187,264.340 290.888,268.952 283.502,273.954 276.048,279.340 " transform="matrix(0.9975216,0,0,0.917322,2.4637305,11.484662)"/>
      <g id="g343"/>
      <polyline style="fill:none;stroke:#0080cc;stroke-width:1.35066366;stroke-miterlimit:4;stroke-dasharray:none" id="polyline347" points="357.268,332.818 350.857,329.176 344.648,325.244 338.627,321.020 332.781,316.503 327.095,311.687 321.559,306.568 316.160,301.138 310.888,295.389 305.733,289.308 300.687,282.885 295.741,276.105 290.888,268.952 286.122,261.408 281.438,253.455 " transform="matrix(0.9975216,0,0,0.917322,2.4637305,11.484662)"/>
      <g id="g349"/>
      <polyline style="fill:none;stroke:#0080cc;stroke-width:1.35066366;stroke-miterlimit:4;stroke-dasharray:none" id="polyline353" points="368.155,234.188 362.459,234.301 356.512,234.775 350.325,235.625 343.911,236.860 337.282,238.491 330.451,240.524 323.435,242.967 316.247,245.823 308.904,249.095 301.423,252.784 293.823,256.889 286.122,261.408 278.339,266.336 270.496,271.668 " transform="matrix(0.9975216,0,0,0.917322,2.4637305,11.484662)"/>
      <g id="g355"/>
      <polyline style="fill:none;stroke:#0080cc;stroke-width:1.35066366;stroke-miterlimit:4;stroke-dasharray:none" id="polyline359" points="353.663,339.479 346.968,335.627 340.476,331.500 334.170,327.096 328.035,322.413 322.056,317.446 316.218,312.187 310.510,306.630 304.918,300.764 299.432,294.578 294.040,288.057 288.733,281.188 283.502,273.954 278.339,266.336 273.238,258.314 " transform="matrix(0.9975216,0,0,0.917322,2.4637305,11.484662)"/>
      <g id="g361"/>
      <polyline style="fill:none;stroke:#0080cc;stroke-width:1.35066366;stroke-miterlimit:4;stroke-dasharray:none" id="polyline365" points="368.352,228.445 362.296,228.294 355.974,228.517 349.400,229.127 342.588,230.136 335.552,231.554 328.308,233.391 320.872,235.653 313.261,238.344 305.492,241.469 297.586,245.030 289.561,249.025 281.438,253.455 273.238,258.314 264.983,263.599 " transform="matrix(0.9975216,0,0,0.917322,2.4637305,11.484662)"/>
      <g id="g367"/>
      <polyline style="fill:none;stroke:#0080cc;stroke-width:1.35066366;stroke-miterlimit:4;stroke-dasharray:none" id="polyline371" points="349.838,346.416 342.878,342.352 336.118,338.032 329.543,333.451 323.134,328.607 316.875,323.495 310.749,318.105 304.744,312.431 298.844,306.460 293.036,300.180 287.308,293.578 281.649,286.637 276.048,279.340 270.496,271.668 264.983,263.599 " transform="matrix(0.9975216,0,0,0.917322,2.4637305,11.484662)"/>
      <g id="g373"/>
    </g>
  </g>
  <text xml:space="preserve" style="font-size:67.45829773px;font-style:italic;font-variant:normal;font-weight:normal;font-stretch:normal;text-align:start;line-height:100%;writing-mode:lr-tb;text-anchor:start;fill:#000000;fill-opacity:1;stroke:none;stroke-width:1px;stroke-linecap:butt;stroke-linejoin:miter;stroke-opacity:1;font-family:Century" x="93.681564" y="485.63162" id="text2467" sodipodi:linespacing="100%" transform="scale(1.0427981,0.9589584)"><tspan sodipodi:role="line" id="tspan2469" x="93.681564" y="485.63162">f</tspan></text>
  <g id="g3451" style="stroke:#c44b7a;stroke-opacity:1" transform="matrix(0.9975216,0,0,0.917322,3.6504739,-0.1773224)">
    <path sodipodi:nodetypes="cs" id="path2548" d="M 179.719,429.28738 C 156.13891,462.74798 139.3247,494.57341 148.51375,554.28064" style="fill:none;fill-rule:evenodd;stroke:#dd0f23;stroke-width:8.76191671;stroke-linecap:butt;stroke-linejoin:miter;marker-end:none;stroke-miterlimit:4;stroke-dasharray:none;stroke-opacity:1"/>
    <g transform="matrix(0.9980691,6.2113238e-2,-6.2113238e-2,0.9980691,32.364444,-6.2708027)" id="g2474" style="fill:#dd0f23;fill-opacity:1;stroke:#dd0f23;stroke-opacity:1">
      <path id="path2480" d="M 147.80099,533.86428 L 130.222,520.9745 L 153.66249,571.95024 L 160.69077,516.28529 L 147.80099,533.86428 z " style="fill:#dd0f23;fill-opacity:1;fill-rule:evenodd;stroke:#dd0f23;stroke-width:2.738099;marker-start:none;stroke-opacity:1;stroke-miterlimit:4;stroke-dasharray:none"/>
    </g>
  </g>
</svg>